<svg viewBox="0 0 16 16" fill="currentColor" stroke="none" xmlns="http://www.w3.org/2000/svg"><path d="M14.2568 4.03136C14.2231 3.96571 14.1743 3.90896 14.1144 3.86574C14.0546 3.82251 13.9854 3.79403 13.9125 3.7826C13.8395 3.77118 13.7649 3.77715 13.6948 3.80001C13.6246 3.82287 13.5608 3.86199 13.5086 3.91417L11.7086 5.71534C11.6202 5.80242 11.5011 5.85123 11.3771 5.85123C11.253 5.85123 11.1339 5.80242 11.0456 5.71534L10.2675 4.93604C10.2239 4.89252 10.1894 4.84084 10.1658 4.78396C10.1422 4.72708 10.1301 4.66612 10.1301 4.60455C10.1301 4.54298 10.1422 4.48202 10.1658 4.42514C10.1894 4.36826 10.2239 4.31659 10.2675 4.27306L12.0598 2.48038C12.1136 2.42666 12.1534 2.36068 12.176 2.28812C12.1986 2.21557 12.2032 2.13861 12.1894 2.06389C12.1756 1.98917 12.1439 1.91892 12.0969 1.85918C12.0499 1.79945 11.9892 1.75203 11.9198 1.72101C10.566 1.11573 8.87614 1.43155 7.81062 2.48917C6.90534 3.388 6.63552 4.79249 7.07087 6.34259C7.09434 6.42525 7.09448 6.51279 7.07126 6.59553C7.04804 6.67826 7.00238 6.75296 6.93933 6.81134L2.06199 11.2659C1.87198 11.4365 1.71872 11.644 1.61155 11.8758C1.50439 12.1076 1.44557 12.3588 1.43867 12.614C1.43178 12.8693 1.47696 13.1233 1.57146 13.3605C1.66597 13.5978 1.8078 13.8132 1.98833 13.9938C2.16885 14.1745 2.38428 14.3164 2.62146 14.411C2.85865 14.5056 3.11262 14.5509 3.36788 14.5441C3.62315 14.5373 3.87436 14.4786 4.10619 14.3716C4.33801 14.2645 4.5456 14.1113 4.71628 13.9214L9.21863 9.03321C9.27617 8.97097 9.3496 8.92561 9.43101 8.90202C9.51243 8.87843 9.59873 8.87749 9.68064 8.89932C10.1219 9.02024 10.5772 9.08298 11.0347 9.08595C12.0133 9.08595 12.8719 8.76925 13.4913 8.15899C14.6383 7.02901 14.8132 5.11241 14.2568 4.03136ZM3.41521 13.6006C3.22226 13.6217 3.02753 13.5823 2.85789 13.488C2.68826 13.3937 2.55208 13.249 2.46815 13.074C2.38423 12.899 2.35669 12.7022 2.38934 12.5109C2.422 12.3196 2.51323 12.1431 2.65045 12.0058C2.78768 11.8686 2.96412 11.7773 3.15544 11.7445C3.34676 11.7118 3.54351 11.7393 3.71856 11.8232C3.8936 11.907 4.0383 12.0431 4.13268 12.2128C4.22706 12.3824 4.26648 12.5771 4.24548 12.77C4.22238 12.9823 4.12749 13.1804 3.97651 13.3314C3.82553 13.4825 3.62751 13.5774 3.41521 13.6006Z" fill="inherit"/></svg>