<svg stroke="none" viewBox="0 0 14 16" fill="currentColor" xmlns="http://www.w3.org/2000/svg">
    <path d="M2.54687 15.0316H1.60937C1.42289 15.0316 1.24405 14.9575 1.11219 14.8257C0.980329 14.6938 0.90625 14.515 0.90625 14.3285V10.1097C0.90625 9.92326 0.980329 9.74442 1.11219 9.61256C1.24405 9.4807 1.42289 9.40662 1.60937 9.40662H2.54687C2.73335 9.40662 2.9122 9.4807 3.04406 9.61256C3.17592 9.74442 3.25 9.92326 3.25 10.1097V14.3285C3.25 14.515 3.17592 14.6938 3.04406 14.8257C2.9122 14.9575 2.73335 15.0316 2.54687 15.0316V15.0316Z" fill="inherit" stroke="none"/>
    <path d="M9.10937 15.0308H8.17187C7.98539 15.0308 7.80655 14.9567 7.67469 14.8249C7.54283 14.693 7.46875 14.5142 7.46875 14.3277V7.29645C7.46875 7.10997 7.54283 6.93112 7.67469 6.79926C7.80655 6.6674 7.98539 6.59332 8.17187 6.59332H9.10937C9.29585 6.59332 9.4747 6.6674 9.60656 6.79926C9.73842 6.93112 9.8125 7.10997 9.8125 7.29645V14.3277C9.8125 14.5142 9.73842 14.693 9.60656 14.8249C9.4747 14.9567 9.29585 15.0308 9.10937 15.0308V15.0308Z" fill="inherit" stroke="none"/>
    <path d="M12.3906 15.0311H11.4531C11.2666 15.0311 11.0878 14.957 10.9559 14.8252C10.8241 14.6933 10.75 14.5145 10.75 14.328V4.0155C10.75 3.82902 10.8241 3.65018 10.9559 3.51832C11.0878 3.38646 11.2666 3.31238 11.4531 3.31238H12.3906C12.5771 3.31238 12.7559 3.38646 12.8878 3.51832C13.0197 3.65018 13.0937 3.82902 13.0937 4.0155V14.328C13.0937 14.5145 13.0197 14.6933 12.8878 14.8252C12.7559 14.957 12.5771 15.0311 12.3906 15.0311V15.0311Z" fill="inherit" stroke="none"/>
    <path d="M5.82812 15.031H4.89062C4.70414 15.031 4.5253 14.9569 4.39344 14.8251C4.26158 14.6932 4.1875 14.5144 4.1875 14.3279V1.67163C4.1875 1.48515 4.26158 1.30631 4.39344 1.17445C4.5253 1.04258 4.70414 0.968506 4.89062 0.968506H5.82812C6.01461 0.968506 6.19345 1.04258 6.32531 1.17445C6.45717 1.30631 6.53125 1.48515 6.53125 1.67163V14.3279C6.53125 14.5144 6.45717 14.6932 6.32531 14.8251C6.19345 14.9569 6.01461 15.031 5.82812 15.031V15.031Z" fill="inherit" stroke="none"/>
</svg>