<svg fill="currentColor" stroke="noe" xmlns="http://www.w3.org/2000/svg"><path d="M7.66277 3.4676C7.61915 3.42588 7.56112 3.40259 7.50076 3.40259C7.44039 3.40259 7.38236 3.42588 7.33874 3.4676L1.94519 8.62004C1.92228 8.64195 1.90406 8.66828 1.89162 8.69744C1.87919 8.72659 1.87279 8.75797 1.87283 8.78967L1.87195 13.6254C1.87195 13.874 1.97072 14.1125 2.14654 14.2883C2.32235 14.4641 2.56081 14.5629 2.80945 14.5629H5.62488C5.7492 14.5629 5.86843 14.5135 5.95633 14.4256C6.04424 14.3377 6.09363 14.2185 6.09363 14.0942V10.1098C6.09363 10.0476 6.11832 9.98801 6.16227 9.94406C6.20623 9.9001 6.26584 9.87541 6.328 9.87541H8.67175C8.73391 9.87541 8.79353 9.9001 8.83748 9.94406C8.88143 9.98801 8.90613 10.0476 8.90613 10.1098V14.0942C8.90613 14.2185 8.95551 14.3377 9.04342 14.4256C9.13133 14.5135 9.25056 14.5629 9.37488 14.5629H12.1891C12.4378 14.5629 12.6762 14.4641 12.852 14.2883C13.0279 14.1125 13.1266 13.874 13.1266 13.6254V8.78967C13.1267 8.75797 13.1203 8.72659 13.1078 8.69744C13.0954 8.66828 13.0772 8.64195 13.0543 8.62004L7.66277 3.4676Z" fill="inherit" stroke="none"/></svg>