<svg viewBox="0 0 191 392" fill="currentColor" stroke="none" xmlns="http://www.w3.org/2000/svg">
    <path d="M91.8771 194.154C91.7081 197.39 90.1868 199.265 86.9243 199.316C83.6619 199.367 81.98 197.466 81.6081 194.475C81.2616 191.67 83.9493 189.009 86.8652 189.135C90.06 189.271 91.6067 191.155 91.8771 194.154Z" fill="inherit" stroke="none"/>
    <path fill-rule="evenodd" clip-rule="evenodd" d="M153.922 323.137C153.542 332.066 149.791 340.519 143.425 346.794L142.149 346.599C142.149 344.638 142.173 342.675 142.198 340.712C142.253 336.391 142.307 332.069 142.098 327.759C141.43 314.579 137.94 302.565 127.375 293.517C125.169 291.55 122.645 289.97 119.912 288.845C119.033 288.498 117.917 288.101 117.072 288.752C116.217 289.405 116.597 290.235 116.937 290.979C117.011 291.14 117.083 291.297 117.14 291.447C124.281 309.544 123.715 327.353 115.677 345.095C111.57 354.152 111.705 363.682 116.776 372.275C122.862 382.607 132.437 388.749 144.177 390.98C161.132 394.199 174.427 389.628 181.518 372.334C184.493 365.076 185.617 357.473 185.938 349.691C186.656 332.118 181.087 316.125 173.412 300.757C163.709 281.317 155.393 261.471 153.128 239.581C150.415 213.382 154.793 187.993 161.715 162.876C167.064 143.458 174.738 124.887 182.407 106.327C183.377 103.98 184.347 101.632 185.313 99.283C194.598 76.6407 192.514 55.2516 179.058 35.1158C168.502 19.3253 152.342 11.5526 134.736 6.32292C129.201 4.67474 123.483 4.13821 117.768 3.6019C112.409 3.09904 107.053 2.59637 101.85 1.17771C90.3894 -1.93982 80.4246 1.42273 71.1951 7.84368C61.6952 14.4505 51.5444 17.4244 39.8301 16.2416C29.8902 15.2343 19.8687 15.342 9.95268 16.5626C2.69251 17.4666 -0.223392 20.7954 0.0132613 28.0612C0.266818 35.6903 3.3095 42.0943 9.69067 46.3186C14.3477 49.4869 17.6185 53.255 18.9878 58.7803C19.9344 62.5991 22.3854 65.5646 25.5042 67.8795C40.0921 78.6768 55.8887 87.1677 73.6631 91.147C79.7315 92.4988 84.4223 95.498 87.3382 100.787C89.5103 104.665 91.5219 108.737 92.4093 113.181C95.3929 128.219 94.5477 142.117 81.0246 152.399C74.0096 157.764 66.5719 162.546 59.0497 167.218C48.4342 173.817 37.9284 180.567 28.8427 189.303C12.1417 205.347 10.2485 229.797 26.7128 246.01C36.6353 255.768 46.0592 265.923 53.4968 277.844C53.7676 278.279 54.0384 278.713 54.3093 279.147C65.2425 296.667 76.1183 314.095 73.8997 336.165C77.4326 328.342 78.5313 320.011 79.1737 311.664C80.2893 297.057 77.8129 283.15 70.2062 270.401C62.3798 257.264 55.1281 243.813 48.3665 230.101C44.9182 223.106 42.4502 215.739 45.0449 208.135C50.8345 191.238 71.6177 178.742 92.3333 182.789C93.2197 182.962 94.106 183.142 94.9923 183.322C103.613 185.069 112.228 186.815 120.85 182.671C123.225 181.53 124.721 182.493 125.659 185.028C128.338 192.285 122.228 207.696 115.111 210.991C113.025 211.96 110.854 212.743 108.687 213.524C108.21 213.695 107.734 213.867 107.259 214.04C106.927 214.162 106.595 214.283 106.262 214.404C101.834 216.018 97.4054 217.632 93.3644 220.124C87.3636 223.832 86.8565 227.364 91.8093 232.163C93.9487 234.177 96.2066 236.061 98.5708 237.806C101.782 240.247 105.053 242.604 108.322 244.961C114.175 249.179 120.025 253.394 125.524 258.083C145.563 275.183 155.553 296.685 153.922 323.137ZM103.903 35.3347C104.623 33.6428 105.002 31.8257 105.02 29.9873C104.91 22.1217 99.4583 16.554 91.1924 16.1316C83.4674 15.7345 77.1792 22.0625 77.0101 29.7254C76.9929 31.5638 77.3381 33.3876 78.026 35.0927C78.714 36.7978 79.7311 38.3507 81.0194 39.6628C82.3077 40.9749 83.8419 42.0206 85.5345 42.74C87.2271 43.4594 89.0448 43.8385 90.8839 43.8557C92.723 43.8729 94.5476 43.5278 96.2533 42.8402C97.959 42.1526 99.5125 41.1358 100.825 39.848C102.138 38.5602 103.184 37.0266 103.903 35.3347Z" fill="inherit" stroke="none"/>
</svg>
