<svg viewBox="0 0 12 14" fill="currentColor" stroke="none" xmlns="http://www.w3.org/2000/svg">
    <path d="M11.0391 6.06262H6.9375C6.56454 6.06262 6.20685 5.91446 5.94313 5.65074C5.67941 5.38702 5.53125 5.02933 5.53125 4.65637V0.55481C5.53125 0.523729 5.5189 0.493922 5.49693 0.471946C5.47495 0.449969 5.44514 0.437622 5.41406 0.437622H2.71875C2.22147 0.437622 1.74456 0.635166 1.39292 0.986797C1.04129 1.33843 0.84375 1.81534 0.84375 2.31262V11.6876C0.84375 12.1849 1.04129 12.6618 1.39292 13.0134C1.74456 13.3651 2.22147 13.5626 2.71875 13.5626H9.28125C9.77853 13.5626 10.2554 13.3651 10.6071 13.0134C10.9587 12.6618 11.1562 12.1849 11.1562 11.6876V6.17981C11.1562 6.14873 11.1439 6.11892 11.1219 6.09694C11.0999 6.07497 11.0701 6.06262 11.0391 6.06262Z" fill="inherit" stroke="none"/>
    <path d="M10.7818 5.02594L6.56865 0.812754C6.56046 0.804609 6.55004 0.799068 6.53871 0.796828C6.52737 0.794587 6.51563 0.795747 6.50495 0.800162C6.49428 0.804576 6.48514 0.812048 6.4787 0.821639C6.47226 0.831229 6.4688 0.84251 6.46875 0.854063V4.65709C6.46875 4.78141 6.51814 4.90064 6.60604 4.98855C6.69395 5.07645 6.81318 5.12584 6.9375 5.12584H10.7405C10.7521 5.12579 10.7634 5.12233 10.7729 5.11589C10.7825 5.10945 10.79 5.10031 10.7944 5.08964C10.7988 5.07896 10.8 5.06722 10.7978 5.05588C10.7955 5.04455 10.79 5.03413 10.7818 5.02594V5.02594Z" fill="inherit" stroke="none"/>
</svg>